<?xml version="1.0" encoding="UTF-8" standalone="no"?>
<!-- Created with Inkscape (http://www.inkscape.org/) -->

<svg
   version="1.1"
   id="svg2678"
   width="1489.4545"
   height="1489.4545"
   viewBox="0 0 1489.4545 1489.4545"
   sodipodi:docname="residence.png"
   inkscape:export-filename="residence3.svg"
   inkscape:export-xdpi="96"
   inkscape:export-ydpi="96"
   xmlns:inkscape="http://www.inkscape.org/namespaces/inkscape"
   xmlns:sodipodi="http://sodipodi.sourceforge.net/DTD/sodipodi-0.dtd"
   xmlns="http://www.w3.org/2000/svg"
   xmlns:svg="http://www.w3.org/2000/svg">
  <defs
     id="defs2682" />
  <sodipodi:namedview
     id="namedview2680"
     pagecolor="#505050"
     bordercolor="#ffffff"
     borderopacity="1"
     inkscape:showpageshadow="0"
     inkscape:pageopacity="0"
     inkscape:pagecheckerboard="1"
     inkscape:deskcolor="#505050"
     showgrid="false"
     showguides="false" />
  <g
     inkscape:groupmode="layer"
     inkscape:label="Image"
     id="g2684">
    <path
       style="fill:#000000;stroke:#000000;stroke-width:17.8741;stroke-opacity:0"
       d="m 102.8191,1088.7624 -7.832106,-7.8322 v -36.1402 -36.1403 l 8.243806,-6.9369 8.2439,-6.9367 h 60.0817 60.0817 V 951.9052 909.0343 H 195.952 c -55.3754,0 -75.9863,-8.8137 -92.3332,-39.4836 -15.655906,-29.37344 -10.325806,-60.24234 14.7874,-85.64014 5.5405,-5.6033 13.9923,-12.2417 18.7818,-14.7521 l 8.7082,-4.5644 0.045,-32.94774 c 0.042,-30.5266 0.583,-34.01238 7.3684,-47.43664 14.0869,-27.86962 41.7547,-40.43943 89.0124,-40.43943 36.2772,0 56.5194,6.18866 73.1199,22.35502 18.7742,18.28323 21.9005,27.40651 22.9197,66.88455 0.8582,33.24754 1.0823,34.38594 7.2283,36.72264 9.8399,3.7411 27.83,21.2231 34.2489,33.2814 4.6404,8.7173 5.8025,15.462 5.8025,33.6757 0,26.37304 -5.0921,38.93604 -21.6883,53.50774 -17.2106,15.1111 -25.0158,17.1406 -72.0276,18.7286 l -42.8709,1.4481 v 41.5312 41.5311 h 458.1832 458.1831 v -31.4559 -31.4559 l -42.8709,-0.7405 c -47.9747,-0.8287 -54.9733,-3.0721 -61.9925,-19.8716 -7.5929,-18.1724 -6.6237,-20.8169 36.1597,-98.65834 10.5238,-19.1474 19.1342,-36.1951 19.1342,-37.8837 0,-1.6887 -4.1846,-3.8553 -9.2991,-4.8148 -18.7505,-3.5176 -33.8,-24.41444 -29.6089,-41.11314 0.9862,-3.9291 5.7869,-13.8125 10.6682,-21.96299 33.1474,-55.34691 55.7864,-94.82037 56.9636,-99.32218 1.0606,-4.05588 0.018,-5.25794 -4.5613,-5.25794 -9.8513,0 -24.484,-8.43881 -29.8277,-17.20187 -8.7185,-14.29733 -6.3496,-28.60476 8.4644,-51.12369 3.8778,-5.89475 12.4871,-20.96657 19.1318,-33.49292 6.6446,-12.52635 16.917,-31.2154 22.8275,-41.53122 5.9106,-10.31582 15.1365,-26.78616 20.5022,-36.60074 13.3393,-24.39976 22.5056,-31.72482 39.6992,-31.72482 17.6748,0 27.0155,5.87201 35.9282,22.58604 9.9669,18.691 42.9108,77.38507 53.4952,95.30904 28.3497,48.00829 31.8357,64.74892 17.0014,81.64429 -5.8892,6.70748 -11.4005,9.97723 -18.8154,11.16292 -5.7676,0.92228 -11,2.50763 -11.6275,3.52301 -0.6276,1.01538 2.9192,8.3929 7.8818,16.39451 4.9625,8.0016 14.9494,24.79721 22.1932,37.32356 7.2437,12.52635 18.4067,31.2154 24.8066,41.53122 14.321,23.08338 16.8966,40.39708 8.0955,54.41982 -5.5759,8.8841 -19.2636,16.5852 -29.4781,16.5852 -2.9948,0 -5.445,1.2043 -5.445,2.6762 0,1.4719 12.0575,27.2786 26.7944,57.3483 27.952,57.03434 30.1361,64.75524 22.7319,80.35864 -7.3048,15.3935 -16.9808,18.7731 -56.2249,19.6378 l -34.8326,0.7675 v 31.4721 31.4721 l 37.5121,0.6518 c 20.6316,0.3584 40.2624,1.2951 43.6239,2.0815 12.1166,2.8344 16.6423,15.7681 16.6533,47.5923 0.011,31.1254 -3.5706,44.8996 -12.9841,49.9376 -3.8308,2.0502 -188.1195,2.8951 -631.4396,2.8951 H 110.6513 Z m 1254.1811,-7.958 c 6.6041,-1.8327 6.7093,-2.3054 7.456,-33.5157 0.5036,-21.0471 -0.2799,-32.9066 -2.3376,-35.3861 -4.6478,-5.6001 -1243.4873,-5.6001 -1248.1351,0 -2.0577,2.4795 -2.8412,14.339 -2.3376,35.3861 0.7467,31.2103 0.8519,31.683 7.456,33.5157 8.7563,2.4299 1229.142,2.4299 1237.8983,0 z m -91.6855,-118.8513 0.7549,-31.4834 h -41.6163 -41.6163 v 30.3669 c 0,16.7019 0.8348,31.2017 1.855,32.2218 1.0202,1.0204 19.4078,1.5228 40.8614,1.1165 l 39.0064,-0.7386 z m 87.997,-51.713 c 3.184,-0.6367 7.1616,-4.6913 9.032,-9.2069 3.1784,-7.6735 1.8087,-11.1753 -27.9238,-71.38974 -17.1964,-34.8263 -30.8967,-65.2728 -30.4452,-67.6589 0.5644,-2.9818 4.1655,-4.5617 11.5166,-5.0525 16.6887,-1.1144 22.1832,-2.9176 28.0376,-9.20154 10.9648,-11.7693 9.2348,-16.2717 -35.3125,-91.90282 -9.5482,-16.21057 -21.1669,-35.43712 -25.8195,-42.72566 -4.6525,-7.28854 -8.4591,-16.03019 -8.4591,-19.4259 0,-5.76839 1.0697,-6.174 16.2827,-6.174 14.4241,0 17.1767,-0.89401 24.1149,-7.83219 4.3077,-4.3077 7.8322,-10.18127 7.8322,-13.05237 0,-2.87111 -8.5947,-20.7486 -19.0993,-39.72776 -10.5045,-18.97917 -25.3734,-45.96215 -33.0418,-59.96219 -7.6684,-14.00004 -18.6876,-33.29197 -24.4871,-42.87094 -9.7081,-16.03487 -11.3541,-17.48325 -20.7516,-18.26013 -14.3328,-1.18488 -20.7164,4.06212 -32.5208,26.73083 -5.6317,10.81484 -12.2745,22.67772 -14.7618,26.36194 -2.4873,3.68422 -10.6486,18.15316 -18.1364,32.1532 -7.4877,14.00004 -19.1366,35.07138 -25.8864,46.82521 -6.7498,11.75382 -12.2723,24.20546 -12.2723,27.6703 0,3.46485 3.5244,9.82421 7.8322,14.13191 6.7946,6.79459 9.8229,7.83219 22.8592,7.83219 10.88,0 15.4524,1.10825 16.5681,4.01573 0.8679,2.26159 -5.1745,15.42876 -13.8328,30.14362 -8.4556,14.37035 -21.6479,36.97962 -29.3161,50.24281 -7.6682,13.2632 -18,30.54305 -22.9595,38.39972 -17.0813,27.0597 -10.2814,43.37664 18.9584,45.49164 10.1642,0.7352 16.9089,2.5269 17.7485,4.7149 0.7448,1.941 -6.7914,18.3681 -16.7471,36.5047 -43.0231,78.37644 -52.1649,96.62434 -50.7072,101.21704 1.9414,6.1167 9.3006,12.5931 16.1033,14.1716 6.4657,1.5001 257.4988,-0.545 265.5946,-2.1638 z M 231.6381,869.6791 v -25.95794 l -24.3714,-24.8519 c -13.4042,-13.6685 -23.8546,-26.4037 -23.223,-28.3005 2.8378,-8.5227 11.3245,-4.7518 29.1772,12.9641 l 18.4172,18.276 v -38.9376 c 0,-40.97594 2.4132,-50.73214 11.6699,-47.17994 3.8177,1.4649 4.4067,7.0524 4.4067,41.80844 0,22.0646 0.9966,40.7334 2.2148,41.4863 1.2182,0.7529 9.925,-6.4105 19.3485,-15.9185 17.0634,-17.2164 25.3889,-21.0549 28.4373,-13.1109 1.093,2.8484 -6.6018,12.5273 -24.199,30.4382 l -25.8016,26.2617 v 21.27494 c 0,12.9746 1.2544,22.5294 3.2153,24.4903 3.7594,3.7594 55.7658,4.2695 74.1028,0.727 17.4422,-3.3698 32.6611,-15.2401 41.2468,-32.1715 8.8282,-17.40964 9.1402,-24.93404 1.8085,-43.61444 -7.1465,-18.2086 -13.9663,-25.4914 -31.0336,-33.1404 l -13.8184,-6.193 -0.9185,-39.86894 c -0.8797,-38.18494 -1.2272,-40.335 -8.227,-50.90486 -4.0196,-6.0698 -13.0627,-14.41843 -20.0957,-18.55253 -12.3661,-7.26893 -14.0231,-7.51656 -50.2994,-7.51656 -20.6316,0 -40.8583,0.93491 -44.9481,2.07758 -10.286,2.87385 -28.7678,20.15545 -33.4064,31.237 -2.6478,6.3255 -3.824,19.30087 -3.7647,41.53117 0.047,17.78244 -0.7868,34.50634 -1.8537,37.16434 -1.067,2.658 -8.4915,8.1064 -16.4991,12.1075 -19.9383,9.9626 -30.095,24.6514 -31.6196,45.7287 -1.4207,19.6408 3.0502,33.76494 13.8955,43.89774 19.5346,18.2512 25.6435,19.9508 73.3156,20.3984 l 32.8231,0.3081 z"
       id="path10283" />
    <path
       style="fill:#ac9393;stroke:#000000;stroke-width:8.93707;stroke-opacity:0.996644"
       d="m 168.80432,893.5986 c -19.29006,-1.6497 -26.69537,-4.7461 -39.77844,-16.6329 -12.04265,-10.9414 -15.63292,-18.97009 -16.27819,-36.40163 -0.99509,-26.88189 6.60597,-40.18504 31.31387,-54.80459 6.6547,-3.93756 13.21574,-8.39268 14.5801,-9.90028 2.21332,-2.44569 2.59749,-6.46232 3.56488,-37.27139 0.59632,-18.99167 1.78865,-36.93018 2.64961,-39.86337 3.22003,-10.97017 17.98257,-26.93784 30.69945,-33.20557 5.86796,-2.89212 7.39853,-2.99258 45.59343,-2.99258 h 39.52165 l 8.66268,4.51947 c 9.94454,5.18825 23.7721,18.40703 27.41926,26.21207 3.16756,6.7787 4.6451,19.78454 4.72752,41.61316 0.0362,9.57898 0.45788,23.33795 0.93712,30.57549 l 0.87135,13.15916 12.65612,6.03378 c 19.64605,9.36623 27.7771,19.39261 34.51058,42.55496 3.05469,10.50775 2.10974,18.4377 -3.63075,30.46914 -8.43972,17.68868 -22.11349,29.39458 -39.93365,34.18658 -7.00774,1.8845 -14.46344,2.352 -38.18193,2.3945 -16.21057,0.029 -31.153,-0.4163 -33.20538,-0.9895 -5.26427,-1.4703 -6.37205,-5.5309 -7.2762,-26.6714 l -0.78578,-18.37304 22.3694,-23.04255 c 27.87156,-28.71032 32.9877,-36.82941 24.83755,-39.41617 -4.41133,-1.4001 -11.64045,3.33986 -26.9382,17.66277 -8.19051,7.66857 -15.55814,13.72311 -16.37251,13.45455 -1.82649,-0.60232 -3.10455,-20.36557 -3.32607,-51.43249 -0.0903,-12.6626 -0.74572,-24.55249 -1.4565,-26.42199 -1.48462,-3.90483 -7.16202,-5.9083 -10.02041,-3.53605 -3.46208,2.87327 -4.88008,15.1029 -5.70717,49.2221 l -0.81822,33.75324 -14.63623,-13.92628 c -16.05788,-15.27895 -24.52584,-20.55387 -29.08161,-18.1157 -1.51274,0.8096 -2.75044,2.62523 -2.75044,4.03474 0,3.42071 10.39278,15.82412 30.41347,36.29736 l 16.47662,16.84906 v 25.68695 25.687 l -25.11969,-0.1974 c -13.81583,-0.1085 -30.24411,-0.6356 -36.50729,-1.1712 z"
       id="path11564" />
    <path
       style="fill:#ac9393;stroke:#000000;stroke-width:8.93707;stroke-opacity:0.996644"
       d="m 1084.1517,910.2879 c -7.061,-3.6725 -12.7372,-10.9794 -11.7694,-15.1507 1.2554,-5.4112 14.84,-32.235 35.0281,-69.16546 17.5198,-32.04943 30.1027,-56.94527 31.9527,-63.22003 1.1988,-4.06571 -1.5718,-5.26141 -17.8206,-7.69097 -18.4829,-2.76361 -24.2895,-6.07137 -26.9515,-15.35306 -2.3109,-8.05778 1.5925,-17.1923 22.2454,-52.05679 31.992,-54.00634 48.288,-82.88155 50.5936,-89.64829 3.0384,-8.91699 1.6777,-9.93247 -14.8439,-11.07824 -15.1887,-1.05332 -19.7448,-3.08243 -25.6276,-11.41341 -5.5876,-7.91313 -5.8382,-9.44536 -2.8095,-17.17657 2.915,-7.44112 37.5594,-70.75586 58.4458,-106.81349 3.628,-6.26318 8.8884,-15.75832 11.6899,-21.10032 6.4585,-12.31539 14.1945,-21.13869 20.3007,-23.15392 6.7854,-2.23938 15.9295,-0.55068 20.6989,3.82264 4.7123,4.32089 17.3547,25.86882 51.2324,87.32168 26.9722,48.92676 34.4441,63.86895 34.4441,68.88102 0,4.01828 -10.0179,15.36547 -15.639,17.7141 -2.5865,1.08074 -9.271,1.82619 -16.3754,1.82619 -9.1272,0 -12.5095,0.50465 -14.1101,2.10528 -1.1579,1.15789 -2.1053,2.65861 -2.1053,3.33491 0,4.19527 7.3354,18.14767 25.6659,48.81835 28.0416,46.91918 36.5067,61.75513 43.5559,76.33603 7.2379,14.97089 7.7909,21.04458 2.5427,27.92531 -4.8219,6.32176 -10.5388,8.76409 -24.4989,10.46612 -12.8704,1.56917 -16.4521,2.86886 -16.4521,5.97002 0,3.76681 9.4561,24.93063 32.8567,73.53682 12.7912,26.56888 23.9886,51.04378 24.8832,54.38858 1.9644,7.3449 1.0296,11.7647 -3.432,16.2263 -3.1342,3.1342 -4.5198,3.4105 -21.1277,4.2128 -9.7754,0.4722 -69.6205,1.207 -132.9891,1.6328 -106.628,0.7165 -115.5412,0.6048 -119.5839,-1.4977 z"
       id="path11566" />
    <path
       style="fill:#6c5353;stroke:#000000;stroke-width:8.93707;stroke-opacity:0.996644"
       d="m 308.51728,1081.3159 c -180.47318,-0.7558 -190.65347,-0.9241 -192.91922,-3.189 -2.15753,-2.1566 -2.39198,-5.4112 -2.39198,-33.2051 0,-24.7126 0.36508,-31.0402 1.84373,-31.9554 4.49772,-2.7838 125.32629,-3.4535 623.13417,-3.4535 497.83892,0 618.63782,0.6697 623.13422,3.4541 2.5014,1.5491 2.7038,59.3529 0.2229,63.6781 -1.3721,2.392 -3.3258,2.9524 -12.7273,3.6509 -15.9398,1.1841 -814.22644,1.9668 -1040.29652,1.0199 z"
       id="path11570" />
    <path
       style="fill:#483737;stroke:#000000;stroke-width:8.93707;stroke-opacity:0.996644"
       d="m 1191.0083,992.9834 -6.0287,-0.8868 -0.8719,-11.3876 c -0.4795,-6.2631 -0.9316,-19.9785 -1.0047,-30.4785 l -0.133,-19.091 h 41.1963 41.1963 l -0.6699,30.0374 c -0.3684,16.5206 -0.9713,30.3271 -1.3397,30.6813 -1.1144,1.0712 -65.8676,2.082 -72.3447,1.1292 z"
       id="path11779" />
    <rect
       style="fill:#e3dbdb;stroke:#000000;stroke-width:13.046;stroke-dasharray:none;stroke-opacity:1"
       id="rect12042"
       width="537.43842"
       height="128.11772"
       x="449.32028"
       y="710.51038"
       rx="7.3209964e-15"
       ry="0" />
    <rect
       style="fill:#241c1c;stroke:#000000;stroke-width:6.67087;stroke-opacity:1"
       id="rect11895-8"
       width="61.626976"
       height="44.210655"
       x="529.59534"
       y="740.97009" />
    <rect
       style="fill:#241c1c;stroke:#000000;stroke-width:6.67087;stroke-opacity:1"
       id="rect11895-9-8"
       width="61.626976"
       height="44.210655"
       x="839.59528"
       y="741.63989"
       rx="7.327472e-15" />
    <rect
       style="fill:#e3dbdb;stroke:#000000;stroke-width:13.046;stroke-dasharray:none;stroke-opacity:1"
       id="rect12042-2"
       width="537.43842"
       height="128.11772"
       x="449.36905"
       y="564.39691"
       rx="7.3209964e-15"
       ry="0" />
    <rect
       style="fill:#241c1c;stroke:#000000;stroke-width:6.67087;stroke-opacity:1"
       id="rect11895-8-1"
       width="61.626976"
       height="44.210655"
       x="529.64404"
       y="594.85663" />
    <rect
       style="fill:#241c1c;stroke:#000000;stroke-width:6.67087;stroke-opacity:1"
       id="rect11895-9-8-09"
       width="61.626976"
       height="44.210655"
       x="839.64398"
       y="595.52643"
       rx="7.327472e-15" />
    <rect
       style="fill:#e3dbdb;stroke:#000000;stroke-width:13.046;stroke-dasharray:none;stroke-opacity:1"
       id="rect12042-2-7"
       width="537.43842"
       height="128.11772"
       x="452.04846"
       y="417.92899"
       rx="7.3209964e-15"
       ry="0" />
    <rect
       style="fill:#241c1c;stroke:#000000;stroke-width:6.67087;stroke-opacity:1"
       id="rect11895-8-1-4"
       width="61.626976"
       height="44.210655"
       x="532.32343"
       y="448.38867" />
    <rect
       style="fill:#241c1c;stroke:#000000;stroke-width:6.67087;stroke-opacity:1"
       id="rect11895-9-8-09-3"
       width="61.626976"
       height="44.210655"
       x="842.3233"
       y="449.0585"
       rx="7.327472e-15" />
    <rect
       style="fill:#e3dbdb;stroke:#000000;stroke-width:13.046;stroke-dasharray:none;stroke-opacity:1"
       id="rect12042-2-7-7"
       width="537.43842"
       height="128.11772"
       x="452.04843"
       y="272.33899"
       rx="7.3209964e-15"
       ry="0" />
    <rect
       style="fill:#241c1c;stroke:#000000;stroke-width:6.67087;stroke-opacity:1"
       id="rect11895-8-1-4-9"
       width="61.626976"
       height="44.210655"
       x="532.32336"
       y="302.79868" />
    <rect
       style="fill:#241c1c;stroke:#000000;stroke-width:6.67087;stroke-opacity:1"
       id="rect11895-8-8"
       width="61.626976"
       height="44.210655"
       x="687.92444"
       y="740.90546" />
    <rect
       style="fill:#241c1c;stroke:#000000;stroke-width:6.67087;stroke-opacity:1"
       id="rect11895-8-1-5"
       width="61.626976"
       height="44.210655"
       x="687.97314"
       y="594.79199" />
    <rect
       style="fill:#241c1c;stroke:#000000;stroke-width:6.67087;stroke-opacity:1"
       id="rect11895-8-1-4-7"
       width="61.626976"
       height="44.210655"
       x="690.65253"
       y="448.32401" />
    <rect
       style="fill:#241c1c;stroke:#000000;stroke-width:6.67087;stroke-opacity:1"
       id="rect11895-8-1-4-9-1"
       width="61.626976"
       height="44.210655"
       x="690.65247"
       y="302.73398" />
    <rect
       style="fill:#241c1c;stroke:#000000;stroke-width:6.67087;stroke-opacity:1"
       id="rect11895-9-8-09-3-4"
       width="61.626976"
       height="44.210655"
       x="842.3233"
       y="303.46851"
       rx="7.327472e-15" />
    <rect
       style="fill:#e3dbdb;stroke:#000000;stroke-width:13.046;stroke-dasharray:none;stroke-opacity:1"
       id="rect12042-8"
       width="537.43842"
       height="128.11772"
       x="449.36899"
       y="855.22821"
       rx="7.3209964e-15"
       ry="0" />
    <rect
       style="fill:#241c1c;stroke:#000000;stroke-width:6.67087;stroke-opacity:1"
       id="rect11891-5-3"
       width="61.626976"
       height="100.47876"
       x="686.08984"
       y="883.00891" />
    <rect
       style="fill:#241c1c;stroke:#000000;stroke-width:6.67087;stroke-opacity:1"
       id="rect11895-8-7"
       width="61.626976"
       height="44.210655"
       x="529.6441"
       y="885.68872" />
    <rect
       style="fill:#241c1c;stroke:#000000;stroke-width:6.67087;stroke-opacity:1"
       id="rect11895-9-8-0"
       width="61.626976"
       height="44.210655"
       x="839.64404"
       y="886.3584"
       rx="7.327472e-15" />
  </g>
</svg>
